<svg width="160" height="64" viewBox="0 0 160 64" fill="none" xmlns="http://www.w3.org/2000/svg">
<path fill-rule="evenodd" clip-rule="evenodd" d="M92.66 40.0167C92.9004 40.0167 93.108 40.1029 93.2829 40.2754C93.4577 40.4478 93.5452 40.6526 93.5452 40.8898V42.0538C93.5452 42.2909 93.4577 42.4957 93.2829 42.6681C93.108 42.8406 92.9004 42.9268 92.66 42.9268H79.3166C79.0761 42.9268 78.8685 42.8406 78.6937 42.6681C78.5188 42.4957 78.4314 42.2909 78.4314 42.0538V21.1657C78.4314 20.9286 78.5188 20.7238 78.6937 20.5514C78.8685 20.3789 79.0761 20.2927 79.3166 20.2927H80.6607C80.9012 20.2927 81.1088 20.3789 81.2837 20.5514C81.4585 20.7238 81.5459 20.9286 81.5459 21.1657V40.0167H92.66ZM101.807 31.1247L112.987 41.6334C113.118 41.7628 113.205 41.876 113.249 41.973C113.293 42.07 113.314 42.1508 113.314 42.2155C113.314 42.4095 113.243 42.5765 113.101 42.7166C112.959 42.8568 112.79 42.9268 112.593 42.9268H110.56C110.255 42.9268 110.003 42.8675 109.806 42.749C109.61 42.6304 109.468 42.528 109.38 42.4418L100.102 33.7115V42.0538C100.102 42.2909 100.015 42.4957 99.8399 42.6681C99.665 42.8406 99.4574 42.9268 99.2169 42.9268H97.8728C97.6323 42.9268 97.4247 42.8406 97.2499 42.6681C97.075 42.4957 96.9876 42.2909 96.9876 42.0538V21.1657C96.9876 20.9286 97.075 20.7238 97.2499 20.5514C97.4247 20.3789 97.6323 20.2927 97.8728 20.2927H99.2169C99.4574 20.2927 99.665 20.3789 99.8399 20.5514C100.015 20.7238 100.102 20.9286 100.102 21.1657V28.6996L108.856 20.7777C108.943 20.6915 109.085 20.5891 109.282 20.4705C109.479 20.352 109.73 20.2927 110.036 20.2927H111.937C112.134 20.2927 112.304 20.3627 112.446 20.5029C112.588 20.643 112.659 20.81 112.659 21.004C112.659 21.0687 112.637 21.1495 112.593 21.2465C112.549 21.3436 112.462 21.4567 112.331 21.5861L101.807 31.1247ZM126.822 33.9702L133.444 21.3274C133.575 21.0687 133.756 20.8316 133.985 20.616C134.215 20.4005 134.515 20.2927 134.887 20.2927H136.133C136.373 20.2927 136.581 20.3789 136.756 20.5514C136.93 20.7238 137.018 20.9286 137.018 21.1657V42.0538C137.018 42.2909 136.93 42.4957 136.756 42.6681C136.581 42.8406 136.373 42.9268 136.133 42.9268H134.788C134.548 42.9268 134.34 42.8406 134.166 42.6681C133.991 42.4957 133.903 42.2909 133.903 42.0538V26.7272L128.789 36.4599C128.614 36.7833 128.428 37.0366 128.232 37.2198C128.035 37.403 127.773 37.4946 127.445 37.4946H126.199C125.871 37.4946 125.609 37.403 125.412 37.2198C125.215 37.0366 125.03 36.7833 124.855 36.4599L119.74 26.7272V42.0538C119.74 42.2909 119.653 42.4957 119.478 42.6681C119.303 42.8406 119.095 42.9268 118.855 42.9268H117.511C117.27 42.9268 117.063 42.8406 116.888 42.6681C116.713 42.4957 116.626 42.2909 116.626 42.0538V21.1657C116.626 20.9286 116.713 20.7238 116.888 20.5514C117.063 20.3789 117.27 20.2927 117.511 20.2927H118.757C119.128 20.2927 119.429 20.4005 119.658 20.616C119.888 20.8316 120.068 21.0687 120.199 21.3274L126.822 33.9702ZM150.23 33.8408L144.067 42.1831C143.957 42.3125 143.815 42.4688 143.64 42.652C143.466 42.8352 143.16 42.9268 142.722 42.9268H141.313C141.116 42.9268 140.947 42.8568 140.804 42.7166C140.662 42.5765 140.591 42.4095 140.591 42.2155C140.591 42.1724 140.597 42.1239 140.608 42.07C140.619 42.0161 140.646 41.946 140.69 41.8598L148.427 31.3834L141.018 21.3597C140.952 21.2304 140.919 21.1118 140.919 21.004C140.919 20.81 140.99 20.643 141.132 20.5029C141.274 20.3627 141.444 20.2927 141.641 20.2927H143.181C143.619 20.2927 143.935 20.4005 144.132 20.616C144.329 20.8316 144.471 20.9933 144.558 21.101L150.394 28.9907L156.099 21.1334C156.186 21.0256 156.328 20.8585 156.525 20.6322C156.722 20.4058 157.038 20.2927 157.476 20.2927H158.885C159.082 20.2927 159.251 20.3627 159.393 20.5029C159.536 20.643 159.607 20.81 159.607 21.004C159.607 21.1118 159.574 21.2304 159.508 21.3597L152.197 31.4481L159.902 41.8598C159.945 41.946 159.973 42.0161 159.984 42.07C159.995 42.1239 160 42.1724 160 42.2155C160 42.4095 159.929 42.5765 159.787 42.7166C159.645 42.8568 159.475 42.9268 159.279 42.9268H157.738C157.301 42.9268 156.995 42.8352 156.82 42.652C156.645 42.4688 156.503 42.3125 156.394 42.1831L150.23 33.8408Z" fill="#02003B"/>
<path fill-rule="evenodd" clip-rule="evenodd" d="M27.8843 0.150101L55.5616 16.0665V47.8994L27.8843 63.8159L0.207108 47.8994V16.0665L27.8843 0.150101ZM27.8843 2.87731L2.57829 17.4301V46.5358L27.8843 61.0886L53.1904 46.5358V17.4301L27.8843 2.87731Z" fill="#02003B"/>
<path fill-rule="evenodd" clip-rule="evenodd" d="M27.8843 10.1085L46.9032 21.0458V42.9202L27.8843 53.8574L8.8655 42.9202V21.0458L27.8843 10.1085ZM27.8843 11.7149L10.2622 21.8489V42.117L27.8843 52.2511L45.5065 42.117V21.8489L27.8843 11.7149Z" fill="#02003B"/>
<path fill-rule="evenodd" clip-rule="evenodd" d="M41.0439 9.27989L54.2034 31.983L41.0439 54.6861H14.7248L1.56528 31.983L14.7248 9.27989H41.0439ZM40.2463 10.6558H15.5224L3.16038 31.983L15.5224 53.3101H40.2463L52.6083 31.983L40.2463 10.6558Z" fill="#02003B"/>
<path fill-rule="evenodd" clip-rule="evenodd" d="M37.0483 16.1732L46.2122 31.983L37.0483 47.7928H18.7204L9.55647 31.983L18.7204 16.1732H37.0483ZM36.299 17.4658H19.4696L11.0549 31.983L19.4696 46.5002H36.299L44.7137 31.983L36.299 17.4658Z" fill="#02003B"/>
<path fill-rule="evenodd" clip-rule="evenodd" d="M27.8843 16.8186L41.069 24.4008V39.5652L27.8843 47.1473L14.6996 39.5652V24.4008L27.8843 16.8186ZM27.8843 19.5096L17.0393 25.7463V38.2197L27.8843 44.4563L38.7293 38.2197V25.7463L27.8843 19.5096Z" fill="#02003B"/>
<path fill-rule="evenodd" clip-rule="evenodd" d="M40.3298 24.1401L41.0186 25.3333L28.5163 32.5507L28.5166 46.0643H27.1389L27.1383 32.5023L14.7202 25.3333L15.4091 24.1401L27.8695 31.3333L40.3298 24.1401Z" fill="#02003B"/>
</svg>
